# xmcd
#
# Track frame offsets: 
#        150
#        10777
#        23222
#        32390
#        41320
#        52050
#        65212
#        74870
#        90472
#        104447
#        113330
#        125777
#        133032
#        143040
#        152237
#        164105
#        177185
#        191155
#        199360
#        210745
#        221977
#        234860
#        243840
#        254897
#        267060
#        276797
#        288687
#        303540
#        313342
#        320792
#
# Disc length: 4404 seconds
#
# Revision: 4
# Processed by: cddbd v1.5.2PL0 Copyright (c) Steve Scherf et al.
# Submitted via: ExactAudioCopy v1.3
#
DISCID=de11321e
DTITLE=Various Artist - The Original Bluegrass Spectacular!
DYEAR=1990
DGENRE=Bluegrass
TTITLE0=Osborne Brothers - Don't Let Smoky Mountain Smoke Get In Your 
TTITLE0=Eyes
TTITLE1=Don Reno and the Tennessee Cut-ups - Cincinnati Rag
TTITLE2=Merle Travis - There Ain't A Cow In Texas
TTITLE3=Grandpa Jones Family - Autoharp Concerto
TTITLE4=Bluegrass Cardinals - Don't Come Running
TTITLE5=Jim and Jesse McReynolds and the Virginia Boys - The Girl I Left
TTITLE5=Behind Me
TTITLE6=Benny Martin - Golden Slippers
TTITLE7=Lester Flatt and Nashville Grass - Will The Circle Be Unbroken
TTITLE8=Merle Travis - John Henry
TTITLE9=Buddy Spicher - I'll Be All Smiles Tonight
TTITLE10=Joe and Rose Lee Maphis - I'm Gonna Wear The Pants
TTITLE11=Josh Graves - Little Home In West Virginia
TTITLE12=Eddie and Martha Adcock - Love's Gonna Get You
TTITLE13=Bluegrass Cardinals - Pretty Red Wing
TTITLE14=Jim and Jesse McReynolds and the Virginia Boys - Swing Low, Sweet
TTITLE14=Chariot
TTITLE15=Wynn Osborne and His Bluegrass Playboys - Farewell Blues
TTITLE16=Nashville Grass with Johnny Cash - Mother Maybelle
TTITLE17=Buddy Spicher and Benny Martin - Life In The Finland Woods
TTITLE18=Felice and Boudleaux - I Can Hear Kentucky Calling Me
TTITLE19=Heights of Grass - Bile 'Em Cabbage Down
TTITLE20=Carl Butler - Motel Song
TTITLE21=Merle Travis - Goodbye My Bluebelle
TTITLE22=Mac Wiseman - I Wonder How the Old Folks Are At Home
TTITLE23=Pinnacle Boys - Wheels
TTITLE24=Grandpa Jones - I Gave My Love A Cherry
TTITLE25=Merle Travis - Westphalia Waltz
TTITLE26=Johnny Gimble and Texas Swing Pioneers - Just Because
TTITLE27=Benny Martin - Payday In The Army
TTITLE28=Merle Travis - La Marcha De Los Mexicanos
TTITLE29=Bluegrass Cardinals - Just A Little Talk With Jesus
EXTD=
EXTT0=
EXTT1=
EXTT2=
EXTT3=
EXTT4=
EXTT5=
EXTT6=
EXTT7=
EXTT8=
EXTT9=
EXTT10=
EXTT11=
EXTT12=
EXTT13=
EXTT14=
EXTT15=
EXTT16=
EXTT17=
EXTT18=
EXTT19=
EXTT20=
EXTT21=
EXTT22=
EXTT23=
EXTT24=
EXTT25=
EXTT26=
EXTT27=
EXTT28=
EXTT29=
PLAYORDER=
